<?xml version="1.0" encoding="UTF-8"?>
<svg xmlns="http://www.w3.org/2000/svg" version="1.1" viewBox="0 0 438.3 135">
  <defs>
    <style>
      .cls-1 {
        fill: none;
      }

      .cls-2 {
        fill: #ff005c;
      }
    </style>
  </defs>
  <!-- Generator: Adobe Illustrator 28.7.10, SVG Export Plug-In . SVG Version: 1.2.0 Build 236)  -->
  <g>
    <g id="Layer_1">
      <g id="Layer_1-2" data-name="Layer_1">
        <g>
          <g>
            <path class="cls-1" d="M233.3,41.1c2-.4,3.6-1,4.9-1.8s2.2-1.8,2.8-3,.9-2.7.9-4.4-.4-4-1.3-5.2c-.8-1.2-2-2.2-3.4-2.8-1.4-.6-3.1-.9-5.1-1s-4-.2-6.1-.2h-13.6v19h13.6c2.8,0,5.3-.2,7.3-.6h0Z"/>
            <path class="cls-1" d="M240.6,60.5c-1.5-.8-3.2-1.3-5.2-1.6-1.9-.3-3.9-.4-5.8-.4h-17.2v21.3h19.7c4.5,0,7.8-.9,10.1-2.8s3.5-4.6,3.5-8.3-.5-3.7-1.4-5-2.2-2.3-3.7-3.1h0Z"/>
            <path class="cls-1" d="M30.7,22.2c-1.1.6-2,1.5-2.7,2.5-.7,1-1,2.4-1,4s.1,1.5.4,2.2c.2.7.7,1.4,1.4,2.1.7.7,1.6,1.4,2.8,2.1,1.2.7,2.8,1.4,4.7,2.2,1.2.5,2.5,1,4,1.5-.6-1.5-1.2-3-1.6-4.4-1.2-3.3-1.8-8.4-2.1-13.7-.7,0-1.3.1-1.9.2-1.5.3-2.8.7-4,1.4h0Z"/>
          </g>
          <g>
            <path d="M108.7,116.2c-.3-.6-.7-1.1-1.1-1.4s-1-.7-1.6-.8-1.3-.3-2.1-.3-1.2,0-1.8.2c-.6.1-1.1.3-1.6.6-.5.3-.8.7-1.1,1.2s-.4,1.1-.4,1.8.2,1.1.5,1.5.7.7,1.3,1c.5.3,1.1.5,1.8.7s1.4.3,2.2.5c.7.1,1.3.3,2,.4.7.2,1.3.3,2,.6.6.2,1.2.5,1.8.8.6.3,1,.7,1.4,1.2s.7,1,1,1.6.3,1.4.3,2.2-.1,1.6-.4,2.2-.6,1.2-1,1.7-.9.9-1.5,1.3-1.2.6-1.8.9c-.7.2-1.3.4-2,.5-.7.1-1.4.2-2.1.2-1.3,0-2.5-.1-3.6-.5-1.1-.3-2.1-.8-3-1.4s-1.5-1.5-2-2.5-.7-2.3-.7-3.7h3c0,1,.2,1.8.5,2.5.3.7.8,1.2,1.4,1.7.6.4,1.3.8,2,1,.8.2,1.6.3,2.5.3s.9,0,1.3,0,.9-.1,1.3-.2.8-.3,1.2-.5c.4-.2.7-.4.9-.7.3-.3.5-.6.6-1.1s.2-.9.2-1.4-.2-1.3-.5-1.7c-.3-.5-.8-.8-1.4-1.1s-1.2-.6-2-.7c-.8-.2-1.6-.4-2.4-.6-.7-.1-1.3-.3-2-.4s-1.3-.3-1.9-.6c-.6-.2-1.2-.5-1.7-.8-.5-.3-.9-.7-1.3-1.1-.4-.4-.7-.9-.9-1.5-.2-.6-.3-1.2-.3-2s.1-1.5.3-2.1.5-1.2.9-1.7c.4-.5.8-.9,1.3-1.3s1.1-.7,1.7-.9c.6-.2,1.2-.4,1.9-.5s1.4-.2,2.1-.2c1.2,0,2.2.1,3.2.4,1,.3,1.8.7,2.6,1.3.7.6,1.3,1.4,1.8,2.3s.7,2,.8,3.3h-3c0-.8-.3-1.5-.6-2.1h0Z"/>
            <path d="M142.1,126c0,1.5-.2,2.7-.6,3.8s-1,2-1.7,2.7-1.7,1.3-2.8,1.6-2.4.5-3.8.5-2.8-.2-3.9-.5c-1.1-.3-2.1-.9-2.9-1.6-.8-.7-1.4-1.6-1.8-2.7-.4-1.1-.6-2.4-.6-3.9v-14.5h3.2v14.5c0,4,2,6.1,6.1,6.1s5.8-2,5.8-6.1v-14.5h3.2v14.5Z"/>
            <path d="M162.2,111.5c.5,0,1,0,1.6,0,.6,0,1.1,0,1.7,0s1.1.1,1.6.3c.5.1.9.3,1.2.5.4.2.7.5,1,.8.3.3.6.7.9,1.1s.4.8.6,1.3c.1.5.2,1,.2,1.6,0,1.2-.2,2.3-.8,3.1s-1.3,1.5-2.3,2c.7.2,1.3.4,1.8.8.5.3.9.8,1.3,1.2.3.5.6,1,.8,1.6s.3,1.2.3,1.9-.1,1.6-.5,2.4c-.3.8-.8,1.5-1.3,2.1s-1.3,1.1-2.2,1.5-1.9.6-3,.6h-10.8v-22.8h8.1ZM163,121.2c.8,0,1.6,0,2.2-.2.6-.1,1.1-.4,1.5-.6.4-.3.7-.7.9-1.1.2-.4.3-1,.3-1.6s0-1-.2-1.4c-.1-.4-.3-.7-.5-.9-.2-.3-.5-.5-.8-.6s-.6-.3-1-.3-.7-.1-1.1-.2-.8,0-1.2,0h-5.7v7h5.7ZM164.5,131.6c.7,0,1.3,0,1.8-.3.5-.2,1-.4,1.3-.8.4-.3.6-.8.8-1.3s.3-1.1.3-1.7-.1-1.3-.4-1.8-.6-.8-1.1-1.1-1-.5-1.6-.6-1.1-.2-1.7-.2h-6.6v7.6h7.2Z"/>
            <path d="M195.4,114.3v-2.8h18v2.8h-7.5v20h-3.2v-20.1h-7.4Z"/>
            <path d="M226.3,111.5v9.7h11.6v-9.7h3.2v22.8h-3.2v-10.3h-11.6v10.3h-3.2v-22.8s3.2,0,3.2,0Z"/>
            <path d="M262.6,111.5l8.8,22.8h-3.6l-2.4-6.8h-9.2l-2.5,6.8h-3.3l8.7-22.8s3.6,0,3.6,0ZM264.3,124.8l-3.6-10.2-3.5,10.2h7.1Z"/>
            <path d="M284.1,111.5v22.8h-3.3v-22.8s3.3,0,3.3,0Z"/>
            <path d="M310.1,122.9c0-1,.1-2.1.3-3.1s.5-1.9.9-2.8.9-1.7,1.5-2.4,1.3-1.4,2.1-1.9c.8-.5,1.7-1,2.7-1.3s2.1-.4,3.3-.4,2.3.2,3.3.4c1,.3,1.9.7,2.7,1.3.8.5,1.5,1.2,2.1,1.9s1.1,1.6,1.5,2.4c.4.9.7,1.8.9,2.8s.3,2,.3,3.1-.1,2.1-.3,3.1c-.2,1-.5,1.9-.9,2.8-.4.9-.9,1.7-1.5,2.4-.6.7-1.3,1.4-2.1,1.9s-1.7.9-2.7,1.2c-1,.3-2.1.4-3.3.4s-2.3-.1-3.3-.4-1.9-.7-2.7-1.2c-.8-.5-1.5-1.2-2.1-1.9-.6-.7-1.1-1.5-1.5-2.4-.4-.9-.7-1.8-.9-2.8-.2-1-.3-2-.3-3.1ZM313.3,122.9c0,.8,0,1.5.2,2.2s.3,1.5.6,2.2c.3.7.6,1.3,1,1.9s.9,1.1,1.5,1.5,1.2.8,1.9,1,1.5.4,2.5.4,1.8-.1,2.5-.4c.7-.2,1.4-.6,2-1s1.1-.9,1.5-1.5.8-1.2,1-1.9.5-1.4.6-2.2.2-1.5.2-2.2,0-1.5-.2-2.3-.3-1.5-.6-2.2c-.3-.7-.6-1.3-1-1.9s-.9-1.1-1.5-1.5c-.6-.4-1.2-.8-2-1-.7-.2-1.6-.4-2.5-.4s-1.7.1-2.5.4-1.4.6-1.9,1-1,.9-1.5,1.5-.7,1.2-1,1.9-.5,1.4-.6,2.2c-.1.8-.2,1.5-.2,2.3Z"/>
            <path d="M356.8,134.3l-11.2-18.4v18.4h-3.2v-22.8h3.6l11.2,18.6v-18.6h3.2v22.8h-3.7Z"/>
            <path d="M375.7,111.5v20.1h11.8v2.7h-15v-22.8h3.2Z"/>
            <path d="M404,134.3h-3.2v-9.3l-8.7-13.5h3.8l6.6,10.7,6.5-10.7h3.6l-8.6,13.5v9.4h0Z"/>
          </g>
          <g>
            <path class="cls-2" d="M23,129.4c-.9-8.8,1.1-14,8.2-20.9,3.5-3.4,6.6-5.8,11.1-8.3h0c1.5-.8,3.1-1.6,5-2.5,15.4-7.4,16.8-8.2,20.2-12.7,3.4-4.4,4.2-9.3,2.3-14.3-.5-1.3-4.8-7.1-9.6-12.8-5.2-6.2-8.9-11.3-11.7-16.7-3.2-6.1-5.2-12.5-6.5-20.7-.5-2.9-.9-6-1.3-9.4-.4-3.6-.9-6.8-1.3-8.9C39.1.8,38.9,0,38.7,0c-.5,0-.9.8-1.3,2.3-.9,3.7-1.3,11.1-.9,18.3.3,5.3.9,10.4,2.1,13.7.4,1.4,1,2.9,1.6,4.4,4,9.7,11.7,21.8,15.4,27.2.5.3.9.7,1.2,1.1,1,1,1.6,2.2,1.9,3.5,1.5,2.4,3.3,6.9-1.6,10.2-2.9,2-4.8,4.4-21.5,12.2-3.6,1.7-6.8,3.5-9.7,5.4-11.1,7.2-17,15.7-17.9,25.8-.3,3.8,0,7.4.9,10.9h15.3c-.6-1.8-1-3.7-1.2-5.6Z"/>
            <path class="cls-2" d="M93.4,75.9c.4-3.4.7-6.7.7-9.9.1-7.8.4-8.9,2.8-11.8,3-3.6,4.8-8.8,4.8-14.3,0-6.9-1.1-8.2-9.8-11.2h0c0,0-.2,0-.2,0-5-1.8-10.2-4.2-13.9-6.4-.4-1.1-.8-2.1-1.4-3.1-.9-1.8-2-3.3-3.3-4.8,0,0,0,0,0,0,1.8-2,1.7-2.1-5.2-5.5-5.2-2.6-7.1-4.2-7.6-6.1-1-3.8-2.6-3.1-2.6,1.2s0,.6,0,.9c.2,5.9,2.1,22,3.3,28.2.3,1.4.5,2.3.6,2.5.3.3.7-.7,1-2.5.2-.9.3-1.9.4-3,.3-3.5,1-7.3,1.4-8.6l.8-2.3,4,2.9c2.2,1.6,6,3.9,9.8,6.1,4.7,2.7,9.6,5.2,12.5,6.4,1,.4,1.8.7,2.2.8,2.2.3,2.4.8,2.3,5-.2,4.8-1.7,8.6-4.5,11-.8.7-1.6,1.2-2.5,1.7-3.2,1.5-3.9,1.5-8,0-2.4-.9-4.4-1.4-4.4-1.1,0,2.9,6,7.3,9.9,7.3s3.3,1.3,2.2,10.8c-1.8,14.6-8.9,38-11.2,36.6-.5-.3-.9-3.3-.9-6.6s-.4-5.8-1-5.4c-.5.3-2.2,4.5-3.7,9.3-3.6,11.8-3.7,17.8.3,31.2h9.4c-.3-1-.5-2.1-.8-3.2l-2.7-10.6,3.6-7.9c6.2-13.4,9.9-25.7,11.4-37.5Z"/>
          </g>
          <g>
            <path d="M11.9,49.1c2.1,1.4,4.3,2.6,6.7,3.7,2.4,1.1,4.8,2,7.2,2.8,2.5.8,4.9,1.5,7.2,2.2,3.4.9,6.7,1.8,9.8,2.6,1.4.4,2.7.8,4,1.2-3.9-6.2-8.4-14.1-11.3-21.1-.6-1.6-1.2-3-1.6-4.3-1-.4-1.8-.9-2.5-1.3-1.2-.7-2.1-1.4-2.8-2.1-.7-.7-1.1-1.4-1.4-2-.2-.7-.4-1.4-.4-2.2,0-1.6.3-2.9,1-4,.7-1,1.6-1.9,2.7-2.5.3-.2.6-.3.9-.5,0-.3,0-.6,0-.9-.3-6.8,0-13.7.7-18.1-.7,0-1.4.1-2,.2-3.2.5-6.2,1.2-9.1,2.2-2.9,1-5.5,2.2-7.9,3.7-2.4,1.5-4.5,3.3-6.3,5.3s-3.2,4.4-4.1,7.1c-1,2.6-1.5,5.6-1.5,8.9s.5,5.5,1.4,7.8c.9,2.3,2.2,4.4,3.7,6.2,1.6,1.8,3.4,3.4,5.5,4.8h0Z"/>
            <path d="M150.8,4.5v56.4c0,3.2-.3,6-.9,8.5s-1.6,4.5-2.9,6.2c-1.3,1.7-3.1,2.9-5.2,3.8-2.1.9-4.8,1.3-7.9,1.3s-6.2-.4-8.6-1.3c-2.3-.9-4.2-2.1-5.7-3.8s-2.5-3.7-3.2-6.2c-.7-2.5-1-5.3-1-8.5V4.5h-23.9v18.6c.6.2,1.1.4,1.7.6h.2c10.1,3.6,13.3,6.2,13.2,16,0,6.7-2.2,13.1-6,17.5-1.5,1.8-1.6,1.9-1.7,8.6,0,3.4-.3,6.9-.8,10.5-.3,2.5-.7,4.9-1.2,7.4,1.7,2.6,3.7,4.9,6.1,6.8,3.7,3,8.1,5.2,13.3,6.6,5.2,1.4,11,2.1,17.4,2.1s11.8-.8,16.8-2.3c5-1.5,9.3-3.8,12.9-6.8s6.3-6.8,8.2-11.4c1.9-4.6,2.9-9.9,2.9-16.1V4.5h-23.9,0Z"/>
            <path d="M265.9,56.7c-1.2-1.8-2.7-3.5-4.5-5-1.8-1.5-3.7-2.7-5.8-3.7,1.5-1,2.9-2.1,4.1-3.4s2.3-2.7,3.2-4.3c.9-1.6,1.6-3.3,2.1-5.1s.8-3.8.8-6-.4-4.8-1-6.9-1.6-4-2.8-5.8c-1.2-1.7-2.5-3.3-4.1-4.7s-3.1-2.6-4.8-3.6c-1.6-1-3.5-1.7-5.7-2.2s-4.5-.9-6.9-1.1c-2.4-.2-4.8-.4-7.3-.4-2.4,0-4.7,0-6.8,0h-38.1v93.4h49.4c3.4,0,6.6-.4,9.5-1.1s5.6-1.8,8-3.1c2.4-1.3,4.5-2.9,6.3-4.7s3.4-3.8,4.6-5.9c1.2-2.1,2.2-4.3,2.8-6.7s1-4.7,1-7-.3-4.6-1-6.7c-.7-2.2-1.6-4.2-2.9-6h0ZM212.4,22.7h13.6c2.1,0,4.2,0,6.1.2s3.6.5,5.1,1c1.4.6,2.6,1.5,3.4,2.8s1.3,3,1.3,5.2-.3,3.1-.9,4.3-1.5,2.2-2.8,3-2.9,1.4-4.9,1.8-4.4.6-7.3.6h-13.6v-19h0ZM242.3,77c-2.3,1.9-5.7,2.8-10.1,2.8h-19.7v-21.3h17.2c2,0,3.9.1,5.8.4,1.9.3,3.6.8,5.2,1.6s2.8,1.8,3.7,3.1c.9,1.3,1.4,3,1.4,5.1,0,3.7-1.1,6.4-3.5,8.3h0Z"/>
            <polygon points="273.7 23.3 298.6 23.3 298.6 97.9 322.7 97.9 322.7 23.3 348 23.3 348 4.5 273.7 4.5 273.7 23.3"/>
            <path d="M414.3,4.5v36.2h-34.5V4.5h-23.9v93.4h23.9v-38.5h34.5v38.5h0c13.2,0,23.9-10.7,23.9-23.9V28.5c0-13.2-10.7-23.9-23.9-23.9h0Z"/>
            <path d="M12.3,91.9c2.3,1.7,4.9,3.1,7.7,4.3,1-.7,2-1.5,3.1-2.2,3.1-2,6.6-3.9,10.3-5.7,6.3-3,10.4-5.1,13.2-6.8-1.5.2-2.9.3-4.3.3-2.5,0-4.9-.3-7.2-.8-2.3-.6-4.3-1.5-6-2.7s-3.1-2.8-4.1-4.8c-1-2-1.5-4.4-1.5-7.2H0c0,3.8.4,7.3,1.5,10.5,1,3.2,2.4,6,4.2,8.5,1.8,2.5,4,4.7,6.6,6.6h0Z"/>
          </g>
        </g>
      </g>
    </g>
  </g>
</svg>